<svg width="64" height="64" viewBox="0 0 1024 1024" fill="none" xmlns="http://www.w3.org/2000/svg">
<rect x="160" y="352" width="32" height="160" fill="#030404"/>
<path d="M832 352H864V512H832V352Z" fill="#030404"/>
<rect x="32" y="326" width="32" height="186" fill="#030404"/>
<rect x="960" y="326" width="32" height="186" fill="#030404"/>
<rect x="992" y="288" width="32" height="224" fill="#030404"/>
<rect y="288" width="32" height="224" fill="#030404"/>
<rect x="832" y="512" width="96" height="64" fill="#030404"/>
<rect x="608" y="35" width="96" height="64" fill="#030404"/>
<rect x="608" y="320" width="96" height="64" fill="#030404"/>
<rect x="384" y="448" width="256" height="32" fill="#030404"/>
<rect x="320" y="544" width="384" height="64" fill="#030404"/>
<rect x="384" y="480" width="256" height="64" fill="#030404"/>
<rect x="640" y="896" width="128" height="64" fill="#030404"/>
<rect x="256" y="608" width="512" height="64" fill="#030404"/>
<rect x="160" y="672" width="704" height="224" fill="#030404"/>
<rect x="256" y="896" width="128" height="64" fill="#030404"/>
<rect x="320" y="320" width="96" height="64" fill="#030404"/>
<rect x="256" y="96" width="32" height="224" fill="#030404"/>
<rect x="736" y="96" width="32" height="224" fill="#030404"/>
<rect x="288" y="96" width="128" height="224" fill="#030404"/>
<rect x="416" y="128" width="64" height="192" fill="#030404"/>
<rect x="544" y="128" width="64" height="192" fill="#030404"/>
<rect x="608" y="96" width="128" height="224" fill="#030404"/>
<rect x="320" y="32" width="96" height="64" fill="#030404"/>
<rect x="96" y="512" width="96" height="64" fill="#030404"/>
<rect x="192" y="352" width="32" height="192" fill="#030404"/>
<rect x="800" y="352" width="32" height="186" fill="#030404"/>
<rect x="64" y="288" width="96" height="224" fill="#030404"/>
<rect x="864" y="288" width="96" height="224" fill="#030404"/>
<rect x="160" y="288" width="32" height="32" fill="#030404"/>
<rect x="832" y="288" width="32" height="32" fill="#030404"/>
</svg>
